# xmcd
#
# Track frame offsets:
#	150
#	21505
#	44844
#	65729
#	89134
#	115010
#	138345
#	162028
#	179275
#	196431
#	215273
#	234384
#	248066
#	266908
#	283610
#
# Disc length: 4064 seconds
# Revision: 0
# Processed by: cddbd v1.5.2PL0 Copyright (c) Steve Scherf et al.
# Submitted via: dBpowerAMP V12.0
#
DISCID=e50fde0f
DTITLE=Tony Lilong - Tony Lilong
DYEAR=2011
DGENRE=World
TTITLE0=En Soireé
TTITLE1=Fraternité
TTITLE2=Cherie Je Suis Désolé
TTITLE3=Fraternite Version
TTITLE4=Bayo
TTITLE5=Ton Image
TTITLE6=Je T'aime de Tout Mon Coeur
TTITLE7=Je Suis Fan
TTITLE8=Quand tu
TTITLE9=Tu es
TTITLE10=Marchons Sur Les Notes
TTITLE11=Pas de Soucis
TTITLE12=Mon Été
TTITLE13=Tendresse en Tendresse
TTITLE14=En Soireé Instrumental
EXTD=
EXTT0=
EXTT1=
EXTT2=
EXTT3=
EXTT4=
EXTT5=
EXTT6=
EXTT7=
EXTT8=
EXTT9=
EXTT10=
EXTT11=
EXTT12=
EXTT13=
EXTT14=
PLAYORDER=
